<svg xmlns="http://www.w3.org/2000/svg" viewBox="0 0 9.29 9.29"><defs><style>.cls-1{fill:#1a1a1a;}</style></defs><title>x</title><g id="Layer_2" data-name="Layer 2"><g id="Ñëîé_1" data-name="Ñëîé 1"><path class="cls-1" d="M8.93,8.93a1.2,1.2,0,0,0,0-1.71L6.36,4.65,8.93,2.07a1.2,1.2,0,0,0,0-1.71h0a1.2,1.2,0,0,0-1.71,0L4.65,2.93,2.07.36A1.2,1.2,0,0,0,.36.36h0a1.2,1.2,0,0,0,0,1.71L2.93,4.65.36,7.22a1.2,1.2,0,0,0,0,1.71h0a1.2,1.2,0,0,0,1.71,0L4.65,6.36,7.22,8.93a1.2,1.2,0,0,0,1.71,0Z"/></g></g></svg>