<svg xmlns="http://www.w3.org/2000/svg" xml:space="preserve" viewBox="0 0 150 150">
  <path fill="#FFF" d="M151 30v121H1V1h150v29m-1.393-27.853c-48.535-.048-97.07-.1-145.606-.104-.614 0-1.228.617-1.991 1.874v145.788h147.993c0-12.44.013-24.584-.002-36.728-.047-36.663-.106-73.325-.394-110.83z"/>
  <path fill="#026D33" d="M149.841 2.99c.054 36.662.113 73.324.16 109.987.015 12.144.002 24.288.002 36.728H2.01c0-48.585 0-97.187.533-146.242 49.454-.46 98.376-.467 147.298-.474m-33.486 61.352s-.029.146-.012.869c.532.673 1.064 1.347 1.402 2.306 0 0-.06.34-.62.735l-4.912-1.071c-.97 1.704-1.955 3.786-3.313 5.588-.362.48-1.864.1-2.796-.154 0 0-.143-.233.585-.527.693-2.071 2.025-4.162 1.963-6.211-.198-6.587-.88-13.161-1.442-19.735-.198-2.322-2.948-4.223-5.087-3.122-.454.032-.908.064-1.81-.273-.783.173-2.228.298-2.245.527-.163 2.232-.087 4.48-.744 6.405-1.9.173-3.798.346-6.005-.082l-1.717-7.846c-2.703 0-3.929-.024-5.153.004-2.832.066-5.664.157-9.124.258-.42-.013-.839-.025-1.612-.621-2.738-2.574-2.561.281-2.596 1.594-.042 1.613.905 3.297.685 4.845-.168 1.182-1.486 2.2-2.292 3.292-.816-1.012-1.854-1.924-2.372-3.071-.372-.823.016-1.965-.045-2.958-.174-2.83-1.535-2.48-3.726-1.483l-1.69-5.828-3.284 5.25-4.091-2.04-.66 1.334c1.227.605 2.454 1.211 3.51 2.614.286 2.344.573 4.688.837 7.797-.004 1.02-.009 2.042-.354 3.657.77 3.187 1.541 6.375 2.244 9.563 0 0-.067.008-.622-.546-1.446.937-2.893 1.874-4.388 2.298-.586.43-1.171.862-2.11 1.908l-6.291 4.776c3.37 1.186 6.235 2.642 9.25 3.092 1.897.284 4.222-.582 5.985-1.583 1.943-1.103 3.462-2.952 5.396-4.681 3.076 4.053 7.05 5.361 12.048 4.003l-4.605-4.39c4.732-.787 8.396-1.396 12.76-1.876.575.364 1.15.728 1.68 1.887l1.225 2.143c.707-.75 1.953-1.45 2.026-2.255.276-3.067.174-6.169.62-9.602.127-.123.255-.246.974-.009l6.024 9.49c-2.701 2.012-5.438 4.05-8.65 6.44 5.272 2.502 7.318-1.358 10.639-4.081.53-.048 1.06-.095 1.903.45l4.165 4.449 4.425-5.385c2.885.152 5.711.301 9.192.73.733 1.082 1.532 2.127 2.18 3.257.55.956.874 2.83 1.386 2.86 1.282.08 2.615-.656 4.608-1.327 4.213-1.173 5.888-4.259 5.734-8.294-.253-6.642-.62-13.29-1.26-19.905-.64-6.601-.814-6.585-3.392-8.609l-.934 5.576-6.65-6.1-1.86 4.184-3.138-4.318a220.514 220.514 0 0 1-1.75 2.632l-3.624-2.161-1.246.838c1.16 2.35 2.318 4.699 3.365 7.804-1.28.492-2.634.856-3.817 1.523-.763.43-1.564 1.219-1.799 2.01-.149.502.837 1.93 1.1 1.877 4.06-.822 2.306 2.11 2.29 3.635-.027 2.342.02 4.396 3.246 4.824-.034.395.14.645.39.82m-72.1 10.775c-.427-.038-.855-.076-1.883-.721l4.775-10.808c1.715-3.17 9.519 1.518 8.502-6.884-1.288.456-2.253.798-3.576.624-.476.222-.952.444-1.997 1.043-.576.18-1.401.698-1.69.487-3.77-2.77-3.975-6.795-3.305-10.862.545-3.31-.837-6.824-3.322-6.308l-1.189 2.587h-8.88l-2.48-4.296-4.879 11.93 1.155.717-2.867.259.387 2.168 1.617-2.087 4.882 5.334c0 1.545.33 3.183-.087 4.6-.477 1.614-1.62 3.032-2.893 4.326-.349.143-.48.398-.762 1.403-.906 7.454 2.557 10.542 9.816 8.653 2.514-.654 4.965-1.547 7.792-1.671.61.342 1.22.684 2.682.69-.351-.448-.703-.896-1.797-1.184M80.5 113.178c6.494-.003 12.994-.178 19.477.083 2.283.093 4.523 1.255 6.783 1.928 2.862 1.02 6.029.72 9.105 1.118 2.35.304 4.915 1.71 5.026-2.136.092-3.15-1.98-3.942-5.026-3.957-3.358-.016-6.712-.881-10.205-1.396-1.419.366-3.213 1.233-5.006 1.231-19.98-.017-39.96-.169-59.94-.281-1.885-.01-3.771-.001-5.658-.001l-.212 1.522c3.064.633 6.118 1.757 9.192 1.812 11.818.212 23.642.08 36.464.077z"/>
  <path d="M149.724 2.568C100.92 2.996 51.997 3.002 2.617 3c.156-.339.77-.956 1.384-.956 48.536.004 97.07.056 145.723.525z"/>
  <path fill="#EBF3EF" d="M54.917 68.222c1.447-.937 2.894-1.874 5.075-2.381-1.025 2.886-2.784 5.341-5.271 8.814 2.587-.771 4.398-.93 5.771-1.788 5.391-3.372 5.985-6.27 3.537-13.19-.568-1.607-3.52-4.243 1.122-4.783.093.223.513.458.612.82.965 2.965 1.831 5.569 2.596 7.865l9.377-4.066.295-4.503c-3.998-.18-7.755-.35-11.634-.681-.123-.163-.501-.313-.587-.569-.608-1.15-1.129-2.046-2.029-3.592-1.415 3.983-3.32 4.54-5.77 1.804-.286-2.344-.573-4.688-.486-7.255 1.128 1.808 1.881 3.839 2.915 6.625l3.429-7.403c1.689-1.326 3.05-1.676 3.224 1.154.06.993-.327 2.135.045 2.958.518 1.147 1.556 2.059 2.372 3.071.806-1.091 2.124-2.11 2.292-3.292.22-1.548-.727-3.232-.685-4.845.035-1.313-.142-4.168 2.742-.871.577 3.53 1.007 6.337 1.438 9.144l2.193-.214c0-1.343.194-2.723-.048-4.022-.317-1.71-.976-3.356-1.489-5.03 2.832-.08 5.664-.172 8.496-.238 1.224-.028 2.45-.004 5.153-.004.44 2.012 1.079 4.93 1.822 8.522 2.226 4.649 4.347 8.623 6.468 12.596l1.542-.446-1.445-12.425c-.008-2.244-.084-4.492.08-6.724.016-.23 1.461-.354 2.545.11.617 4.569 1.2 8.502 1.183 12.433-.025 5.735-.48 11.469-.753 17.203-2.525 2.675-4.571 6.535-9.843 4.033 3.212-2.39 5.949-4.428 8.65-6.44-2.131-3.357-4.078-6.423-6.433-9.92-.597-.026-.785.379-.972.784-.04 3.088.063 6.19-.213 9.257-.073.806-1.319 1.506-2.026 2.255-.408-.715-.817-1.429-.87-2.79.165-4.961.35-9.338-.364-13.562-.395-2.336-1.825-5.382-3.68-6.29-1.341-.657-4.147 1.674-5.75 2.417 2.122 1.98 5.367 3.905 5.107 4.987-.576 2.396-2.914 4.369-4.567 6.559h8.372l-1.853 4.52-12.06 2.005 4.605 4.39c-4.997 1.358-8.972.05-12.048-4.003-1.934 1.73-3.453 3.578-5.396 4.68-1.763 1.002-4.088 1.868-5.984 1.584-3.016-.45-5.881-1.906-9.251-3.092 1.854-1.408 4.072-3.092 6.728-5.097.865-.572 1.293-.823 1.721-1.074m13.933.497 4.78 2.955 1.398-4.913-1.139-1.382c-1.831.93-3.662 1.858-5.04 3.34m11.56-11.236s.114-.068 0 0m1 2s.114-.068 0 0m-3.997 5s.112-.068 0 0z"/>
  <path fill="#E8F2ED" d="m52.43 57.843 3.218-1.14c1.017 8.402-6.787 3.713-8.502 6.884-1.592 3.603-3.183 7.205-4.46 11.102.317.293.337.261.337.261-2.48.784-4.931 1.677-7.445 2.331-7.259 1.889-10.722-1.2-9.47-9.023.56-.468.722-.62.834-.824.854-1.503 1.998-2.92 2.475-4.535.418-1.417.087-3.055.087-4.6l-4.882-5.334-1.617 2.087-.387-2.168 2.867-.26-1.155-.716 4.878-11.93 2.481 4.296h8.88l1.19-2.587c2.484-.516 3.866 2.998 3.32 6.308-.669 4.067-.463 8.091 3.307 10.862.288.211 1.113-.308 2.422-.699 1.03-.246 1.325-.28 1.621-.315M40.518 71.728c.204-.536.408-1.071 1.18-1.75l.86-3.42-1.114-.18c-.17 1.195-.341 2.39-.982 3.93-.183.544-.367 1.088-.819 1.783.138-.004.275-.007.875-.363m-2.34-13.823 5.969.99c-1.022-1.569-1.606-3.212-2.766-3.95-.64-.406-2.246.708-4.21 1.088-1.2-.33-2.402-.658-3.7-1.012-1.232 4.476 2.637 9.81-3.319 12.739 4.782 2.38 7.534 1.33 9.636-2.957l-4.714-2.129c.785-1.62 1.57-3.239 3.103-4.769m-7.755 15.74 5.135 1.02.046-2.533c-1.618.28-3.236.559-5.181 1.513m-2.718-4.21-.13 1.965.83.012c-.03-.655-.06-1.31-.7-1.977m13.895-17.913.823.886c.103-.106.306-.293.296-.306-.243-.297-.509-.575-1.119-.58m-.414-2.263-.476.345c.222-.023.443-.046.476-.345m-3.44 22.928-.35-.48c.024.223.048.446.35.48m3.737-24.596s-.07-.117 0 0z"/>
  <path fill="#E5F0EA" d="M106.058 72.883c.978-.015 2.48.365 2.842-.115 1.358-1.802 2.343-3.884 3.313-5.588 2.015.44 3.463.755 5.606.87.828-3.162.961-6.122 1.148-9.496.283-4.16-.315-7.552-3.911-9.657l-3.477-7.05 1.246-.837 3.631 2.163c.51-.763 1.014-1.528 1.743-2.634l3.138 4.318 1.86-4.185 6.65 6.1.934-5.575c2.578 2.024 2.752 2.008 3.392 8.61.64 6.614 1.007 13.262 1.26 19.904.154 4.035-1.521 7.121-6.493 8.398-1.866-.153-2.973-.41-4.322-.722l8.178-5.258-4.012-5.493-2.849 5.625-2.022-13.881-1.115.278-1.928 14.277-8.537-.45-4.425 5.385c-1.388-1.483-2.776-2.965-4.394-5.102-.04-1.326.15-2 .339-2.672l2.205 2.787m24.314-8.993 2.108 2.365c-2.104-6.337 2.167-14.612-6.018-18.86.793 5.406-.415 11.187 3.91 16.495z"/>
  <path fill="#F0F6F3" d="M80 113.178c-12.322.004-24.146.135-35.964-.077-3.074-.055-6.128-1.179-9.192-1.812l.212-1.522c1.887 0 3.773-.01 5.659 0 19.98.113 39.96.265 59.939.282 1.793.002 3.587-.865 5.006-1.231 3.493.515 6.847 1.38 10.205 1.396 3.046.015 5.118.808 5.026 3.957-.111 3.847-2.676 2.44-5.026 2.136-3.076-.398-6.243-.098-9.105-1.118-2.26-.673-4.5-1.835-6.783-1.928-6.483-.261-12.983-.086-19.977-.083z"/>
  <path fill="#157640" d="M86.952 68.893c.193-1.388.735-2.71 1.503-4.584h-8.372c1.653-2.19 3.99-4.163 4.567-6.56.26-1.081-2.985-3.007-5.107-4.986 1.603-.743 4.409-3.074 5.75-2.417 1.855.908 3.285 3.954 3.68 6.29.715 4.224.529 8.6.386 13.164-.908-.114-1.482-.478-2.407-.907z"/>
  <path fill="#13733C" d="M121.198 73.075c.315-4.899.957-9.658 1.6-14.417l1.115-.278 2.022 13.88 2.849-5.624 4.012 5.493-8.178 5.258c1.349.312 2.456.569 3.982.853-.894.436-2.227 1.172-3.51 1.093-.511-.032-.836-1.905-1.384-2.86-.649-1.131-1.448-2.176-2.508-3.398z"/>
  <path fill="#E1EEE7" d="M102.804 42.97c1.458-1.052 4.208.85 4.406 3.171.562 6.574 1.244 13.148 1.442 19.735.062 2.049-1.27 4.14-2.269 5.867-.435-3.476-.345-6.635-.74-9.733-.809-6.364-1.877-12.695-2.839-19.04z"/>
  <path fill="#187640" d="M58 52.354c2.462 2.354 4.366 1.797 5.781-2.186.9 1.546 1.421 2.441 1.86 3.661-.297.451-.464.624-.583.843-4.55.762-1.597 3.398-1.029 5.005 2.448 6.92 1.854 9.818-3.537 13.19-1.373.858-3.184 1.017-5.771 1.788 2.487-3.473 4.246-5.928 5.548-8.537-.457-.153-.39-.161-.008.212 3.459-4.339 2.207-9.455-2.285-10.53.004-1.021.009-2.042.024-3.446z"/>
  <path fill="#207C48" d="M102.464 42.995a251.307 251.307 0 0 1 3.18 19.015c.394 3.098.304 6.257.375 9.88-.058.491.085.724.062.859-.758-.795-1.493-1.724-2.228-2.653-.19.673-.379 1.346-.496 2.375-.457.405-.987.452-1.915.524-.126-5.71.33-11.444.355-17.179.017-3.93-.566-7.864-.958-12.249.376-.484.83-.516 1.625-.572z"/>
  <path fill="#2B8251" d="M115 49.274c3.652 1.728 4.25 5.12 3.627 9.314-.827 1.236-1.26 2.023-1.985 2.99-.448.602-.607 1.026-.766 1.45-3.139.065-3.185-1.99-3.159-4.331.017-1.525 1.771-4.457-2.29-3.635-.262.053-1.248-1.375-1.099-1.877.235-.791 1.036-1.58 1.8-2.01 1.182-.667 2.535-1.03 3.872-1.9z"/>
  <path fill="#1D7B46" d="M97.656 49.838c.815 4.3 1.296 8.442 1.778 12.584l-1.542.446c-2.121-3.973-4.242-7.947-6.314-12.296 1.948-.548 3.847-.72 6.078-.734z"/>
  <path fill="#2E8454" d="M63.618 43.774c-.771 2.372-1.794 4.58-3.178 7.568-1.034-2.786-1.787-4.817-2.83-7.023-1.514-.782-2.74-1.388-3.967-1.993l.659-1.333 4.091 2.039 3.284-5.25c.861 2.97 1.275 4.4 1.94 5.992z"/>
  <path fill="#EBF3EF" d="M57.805 56.097c4.663.778 5.915 5.894 2.49 10.233a76.16 76.16 0 0 1-2.49-10.233z"/>
  <path fill="#1D7B46" d="M75.639 42.002c.827 1.664 1.486 3.31 1.803 5.02.242 1.299.048 2.679.048 4.022l-2.193.214c-.43-2.807-.861-5.614-1.26-8.853.45-.418.868-.406 1.602-.403z"/>
  <path fill="#CDE3D7" d="M116.932 61.4c.434-.789.868-1.576 1.641-2.399a35.017 35.017 0 0 1-.474 8.851c-.414.004-.354-.336-.262-.87-.443-1.188-.977-1.842-1.51-2.495 0 0 .028-.146.276-.638.276-1.144.303-1.797.33-2.45z"/>
  <path fill="#E9F2ED" d="M54.893 67.965c-.404.508-.832.76-1.52 1.023.325-.417.91-.848 1.52-1.023zM45.198 76.636c-.609-.342-1.218-.684-2.001-1.356-.174-.33-.194-.298-.21-.288.412.048.84.086 1.682.465.453.62.491.9.53 1.179z"/>
  <path fill="#E6F1EB" d="M116.334 64.848c.526.292 1.06.946 1.6 1.99-.527-.281-1.06-.955-1.6-1.99zM116.642 61.578c.264.474.237 1.127.027 2.236-.565.352-.74.102-.75-.54.116-.67.275-1.094.723-1.696z"/>
  <path fill="#E5F0EA" d="M52.25 57.585c-.117.293-.413.327-1.157.385.027-.199.503-.42 1.157-.385z"/>
  <path fill="#EBF3EF" d="M45.625 76.468c-.465-.112-.503-.391-.584-1.091.308.027.66.475.584 1.091z"/>
  <path fill="#E5F0EA" d="M26.733 67.33c.097.309-.066.46-.439.609-.25-.316-.119-.571.44-.61z"/>
  <path fill="#13733C" d="m66.519 54.491 11.512.52-.295 4.502-9.377 4.066c-.765-2.296-1.631-4.9-2.382-8.08.258-.72.4-.864.542-1.008z"/>
  <path fill="#E9F2ED" d="M68.622 68.442c1.605-1.205 3.436-2.134 5.267-3.063l1.139 1.382-1.398 4.913c-1.85-1.144-3.315-2.05-5.008-3.232zM80.466 57.449c.057-.034-.057.034 0 0zM81.466 59.449c.057-.034-.056.034 0 0z"/>
  <path fill="#13733C" d="M65.151 54.894c.026-.441.193-.614.577-.809.168-.07.546.08.669.244-.02.306-.162.45-.518.809-.215.214-.635-.021-.728-.244z"/>
  <path fill="#026D33" d="M92.649 61.303c-.016-.232.172-.637.473-.792-.014.374-.142.497-.473.792z"/>
  <path fill="#E9F2ED" d="M77.468 64.449c.056-.034-.056.034 0 0z"/>
  <path fill="#1D7944" d="m37.429 57.815-2.355 4.86 4.714 2.128c-2.102 4.287-4.854 5.337-9.636 2.957 5.956-2.929 2.087-8.263 3.32-12.74 1.297.355 2.498.684 4.087 1.345.215.705.042 1.078-.13 1.45z"/>
  <path fill="#E5F0EA" d="M37.803 57.86c-.202-.417-.029-.79.152-1.47 1.18-.737 2.786-1.85 3.426-1.444 1.16.737 1.744 2.38 2.766 3.948a741.653 741.653 0 0 0-6.344-1.034zM30.585 73.307c1.782-.616 3.4-.896 5.018-1.175l-.046 2.532c-1.712-.34-3.424-.68-4.972-1.357zM40.932 69.962l.512-3.584 1.113.18c-.286 1.14-.573 2.28-1.191 3.45-.332.03-.434-.046-.434-.046zM28.009 69.44c.335.661.365 1.317.396 1.972l-.83-.012c.042-.655.086-1.31.434-1.96zM41.773 51.384c.436.143.702.42.945.718.01.013-.193.2-.296.306-.275-.295-.549-.59-.649-1.024zM41.28 49.397c-.128.16-.35.184-.57.207.158-.115.317-.23.57-.207z"/>
  <path fill="#E5F0EA" d="M41.082 70.08a5.347 5.347 0 0 1-.828 1.786c-.264.138-.342.074-.342.074.183-.544.367-1.088.785-1.805.235-.173.337-.098.385-.056zM37.607 72.282c-.164-.129-.188-.352-.212-.576.117.16.234.32.212.576zM40.023 72.043c-.105.041-.242.044-.245-.028.134-.075.212-.01.245.028zM41.447 47.533c-.035-.059.035.058 0 0z"/>
  <path fill="#157640" d="M130.168 63.59c-4.121-5.008-2.913-10.789-3.706-16.196 8.185 4.25 3.914 12.524 6.018 18.86a96.583 96.583 0 0 1-2.312-2.664z"/>
</svg>