<svg xmlns="http://www.w3.org/2000/svg" width="650" height="326.007" viewBox="0 0 650 326.007">
  <g id="illustration" transform="translate(-590.078 -225.132)">
    <g id="Group_30" data-name="Group 30">
      <g id="Group_29" data-name="Group 29">
        <path id="Path_23" data-name="Path 23" d="M1059.461,417.756a.27.27,0,0,0,.355-.144l3.386-8.254,3.63,8.147a.276.276,0,0,0,.252.158h0a.265.265,0,0,0,.241-.167l3.39-8.577,3.767,8.384a.253.253,0,0,0,.246.163.278.278,0,0,0,.249-.171l3.385-8.3,3.767,8.3a.27.27,0,0,0,.244.151h0a.276.276,0,0,0,.246-.159l3.636-8.261,3.388,8.143a.248.248,0,0,0,.238.167.287.287,0,0,0,.251-.15l4.16-8.97a.27.27,0,0,0-.49-.229l-3.9,8.413-3.386-8.159a.283.283,0,0,0-.248-.167.262.262,0,0,0-.246.158l-3.652,8.291-3.778-8.318a.258.258,0,0,0-.247-.153h0a.258.258,0,0,0-.239.164l-3.393,8.314-3.768-8.4a.266.266,0,0,0-.251-.159h0a.259.259,0,0,0-.241.168l-3.39,8.576-3.627-8.138a.263.263,0,0,0-.248-.156.27.27,0,0,0-.245.163l-3.624,8.836A.27.27,0,0,0,1059.461,417.756Z"/>
        <path id="Path_24" data-name="Path 24" d="M1004.605,551.117a.271.271,0,0,0,.355-.144l3.385-8.253,3.63,8.146a.274.274,0,0,0,.252.158h0a.265.265,0,0,0,.242-.167l3.389-8.577,3.767,8.385a.254.254,0,0,0,.246.162.277.277,0,0,0,.249-.171l3.385-8.3,3.767,8.3a.271.271,0,0,0,.244.151h0a.277.277,0,0,0,.246-.159l3.635-8.261,3.388,8.143a.249.249,0,0,0,.238.167.286.286,0,0,0,.251-.15l4.16-8.97a.27.27,0,0,0-.489-.229l-3.9,8.413-3.386-8.159a.283.283,0,0,0-.248-.167.264.264,0,0,0-.246.158l-3.652,8.291-3.778-8.318a.258.258,0,0,0-.247-.153h0a.258.258,0,0,0-.239.164l-3.393,8.314-3.768-8.4a.264.264,0,0,0-.251-.159h0a.258.258,0,0,0-.241.168l-3.39,8.576-3.627-8.138a.262.262,0,0,0-.248-.156.27.27,0,0,0-.244.163l-3.625,8.836A.271.271,0,0,0,1004.605,551.117Z"/>
        <path id="Path_25" data-name="Path 25" d="M746.221,469.028l-3.885-5.16a32.021,32.021,0,0,1-9.4,3.655l.474,6.309-8.034.594-.458-6.233a31.488,31.488,0,0,1-9.959-2.093L712,471.559l-7.08-3.834,2.969-5.448a31.257,31.257,0,0,1-7.191-7.192l-5.479,3.01-3.879-7.045,5.552-3.038-.069-.181a31.357,31.357,0,0,1-1.994-9.679l-6.433-.437.554-8.019,6.557.457a31.466,31.466,0,0,1,3.6-9.252l-5.408-4.01,4.811-6.448,5.5,4.094a31.258,31.258,0,0,1,7.907-5.755l-2.474-6.551,7.541-2.829,2.5,6.649a31.319,31.319,0,0,1,9.642-.631l1.507-7.027,7.876,1.688-1.529,7.071a31.614,31.614,0,0,1,8.449,4.574l5.107-5.132,5.711,5.669-5.089,5.1a31.418,31.418,0,0,1,4.685,8.333l.029.076,6.965-1.537,1.733,7.85-6.864,1.5a31.158,31.158,0,0,1-.536,9.741l6.459,2.379-2.8,7.539-6.335-2.346a31.4,31.4,0,0,1-5.8,8.049l3.966,5.249Zm-20.029,4.457,6.274-.464-.466-6.2.381-.077a31.123,31.123,0,0,0,9.841-3.829l.341-.206,3.832,5.09,5.027-3.775-3.9-5.16.276-.27a30.528,30.528,0,0,0,6.08-8.437l.175-.358,6.255,2.316,2.183-5.888-6.354-2.34.086-.376a30.274,30.274,0,0,0,.56-10.218l-.045-.394,6.778-1.484-1.353-6.131-6.859,1.514-.131-.365c-.051-.143-.1-.285-.157-.427a30.538,30.538,0,0,0-4.792-8.4l-.247-.307L755,412.266l-4.46-4.428L745.5,412.9l-.308-.24a30.757,30.757,0,0,0-8.873-4.8l-.369-.127,1.507-6.97-6.151-1.319-1.487,6.935-.393-.04a30.453,30.453,0,0,0-10.121.661l-.378.089-2.461-6.549-5.889,2.209,2.444,6.469-.357.177a30.409,30.409,0,0,0-8.295,6.035l-.27.277-5.412-4.028-3.757,5.036,5.339,3.959-.205.341a30.611,30.611,0,0,0-3.775,9.7l-.077.378-6.446-.449-.433,6.263,6.346.431.013.4a30.465,30.465,0,0,0,1.953,9.8c.067.177.135.353.205.528l.143.361-5.46,2.987,3.03,5.5,5.4-2.966.227.325a30.389,30.389,0,0,0,7.523,7.525l.322.225-2.922,5.362,5.53,2.994L714.558,465l.365.146a30.622,30.622,0,0,0,10.421,2.19l.4.013Zm8.19-16.476A22.372,22.372,0,1,1,747.477,428.2,22.455,22.455,0,0,1,734.383,457.009Zm-15.464-41.047a21.492,21.492,0,1,0,27.734,12.551A21.5,21.5,0,0,0,718.918,415.962Z" fill="#0c0c0d"/>
        <path id="Path_26" data-name="Path 26" d="M932.947,312.7l-1.277-7.309a36.824,36.824,0,0,1-11.537-1.156l-2.817,6.708-8.538-3.58,2.795-6.621a36.121,36.121,0,0,1-9.1-7.335l-5.891,4.045-5.242-7.617,5.892-4.03a35.833,35.833,0,0,1-3.6-11.113l-7.187.225-.283-9.235,7.276-.217q.011-.111.024-.221a36.054,36.054,0,0,1,3.026-10.95l-6.359-3.8,4.766-7.922,6.475,3.885a36.263,36.263,0,0,1,8.53-7.6l-3.438-6.926,8.3-4.093,3.49,7.06a36.013,36.013,0,0,1,11.109-1.771l.9-8,9.2,1.034-.923,8.111a35.979,35.979,0,0,1,10.2,4.38l5.222-6.41,7.181,5.835-5.267,6.443a36.239,36.239,0,0,1,6.256,9.088l7.917-2.592,2.88,8.782-7.878,2.565a36.066,36.066,0,0,1,.434,10.975l-.011.092,7.937,2.057-2.336,8.941-7.815-2.04a35.877,35.877,0,0,1-5.649,9.7l5.368,5.8-6.81,6.262-5.259-5.7a36.2,36.2,0,0,1-10.156,5.217l1.313,7.441ZM910.1,306.824l6.668,2.8,2.77-6.594.431.12a35.808,35.808,0,0,0,12.081,1.209l.457-.033,1.259,7.209,7.124-1.245-1.29-7.315.424-.133a35.21,35.21,0,0,0,10.642-5.47l.367-.276,5.193,5.632,5.318-4.89-5.282-5.709.285-.341a34.879,34.879,0,0,0,5.924-10.171l.16-.428,7.717,2.015,1.824-6.984-7.816-2.026.057-.441c.022-.173.044-.346.063-.519a35.045,35.045,0,0,0-.509-11.1l-.092-.443,7.774-2.531L969.4,252.3l-7.8,2.555-.19-.406a35.244,35.244,0,0,0-6.57-9.544l-.311-.323,5.192-6.351-5.609-4.557L948.957,240l-.381-.246a34.961,34.961,0,0,0-10.71-4.6l-.433-.105.909-7.988-7.187-.808-.884,7.9-.458-.005A35.042,35.042,0,0,0,918.158,236l-.421.143-3.432-6.946-6.484,3.2,3.394,6.837-.389.242a35.3,35.3,0,0,0-8.942,7.96l-.276.347-6.365-3.82-3.722,6.188,6.273,3.75-.2.414a35.035,35.035,0,0,0-3.128,11.048c-.024.217-.046.432-.067.648l-.042.445-7.155.212.221,7.213,7.082-.222.062.45a34.824,34.824,0,0,0,3.763,11.628l.212.4-5.8,3.967,4.094,5.949,5.8-3.98.3.339a35.114,35.114,0,0,0,9.525,7.674l.4.22Zm17.013-12.6a25.711,25.711,0,1,1,28.489-22.67A25.752,25.752,0,0,1,927.118,294.223Zm5.656-50.092A24.7,24.7,0,1,0,954.6,271.44,24.769,24.769,0,0,0,932.773,244.131Z" fill="#0c0c0d"/>
        <g id="Group_9" data-name="Group 9">
          <path id="Path_69" data-name="Path 69" d="M957.7,500.13c0,3.109-1.186,4.227-4.517,4.227H902.7c-3.33,0-5.279-1.118-5.279-4.227l5.958-32.861c0-3.114,1.946-4.229,5.278-4.229h38.573c3.33,0,4.525,1.115,4.525,4.229Z" fill="#171814"/>
          <path id="Path_70" data-name="Path 70" d="M1063.631,458.326c0,14.045-5.378,19.072-20.406,19.072H815.307c-15.031,0-23.817-5.027-23.817-19.072V309.981c0-14.045,8.786-19.074,23.817-19.074h227.918c15.028,0,20.406,5.029,20.406,19.074Z" fill="#292924"/>
          <path id="Path_71" data-name="Path 71" d="M1054.536,442.314c0,11.791-5.02,16.018-19.041,16.018H822.808c-14.025,0-22.221-4.227-22.221-16.018V317.7c0-11.8,8.2-16.021,22.221-16.021h212.686c14.021,0,19.041,4.223,19.041,16.021Z" fill="#1a1a16"/>
          <g id="Group_8" data-name="Group 8">
            <path id="Path_72" data-name="Path 72" d="M933.349,465.856a5.787,5.787,0,1,1-5.787-5.775A5.778,5.778,0,0,1,933.349,465.856Z" fill="#1a1a16"/>
            <path id="Path_73" data-name="Path 73" d="M930.423,465.856A2.861,2.861,0,1,1,927.562,463,2.857,2.857,0,0,1,930.423,465.856Z" fill="#0f0f0c"/>
          </g>
          <path id="Path_74" data-name="Path 74" d="M1050.42,439.073c0,11.26-4.859,15.3-18.427,15.3H826.209c-13.572,0-21.5-4.037-21.5-15.3v-119c0-11.266,7.928-15.3,21.5-15.3h205.784c13.567,0,18.427,4.033,18.427,15.3Z" fill="#0c0c0d"/>
          <path id="Path_75" data-name="Path 75" d="M967.524,501.349c0,2.415-.568,4.375-3.721,4.375H891.323c-3.156,0-3.721-1.96-3.721-4.375h0c0-2.418.565-4.371,3.721-4.371H963.8c3.153,0,3.721,1.953,3.721,4.371Z" fill="#292924"/>
        </g>
        <g id="Group_11" data-name="Group 11">
          <path id="Path_76" data-name="Path 76" d="M655.111,502.4H643.967V487.216l-45.818-81.734,61.925-92.062,10.138,4.63-59.58,86.933,44.479,79.335Z" fill="#0f0f0c"/>
          <path id="Path_77" data-name="Path 77" d="M681.707,501.411c0,5.677-6.455,10.279-14.423,10.279H631.809c-7.979,0-14.438-4.6-14.438-10.279h0c0-5.68,6.459-10.281,14.438-10.281h35.475c7.968,0,14.423,4.6,14.423,10.281Z" fill="#0f0f0c"/>
          <path id="Path_78" data-name="Path 78" d="M728.559,331.621c9.049,9.6,9.177,24.148.29,32.487s-23.42,7.317-32.476-2.289-9.182-24.145-.3-32.484S719.506,322.019,728.559,331.621Z" fill="#a5a5a1"/>
          <path id="Path_79" data-name="Path 79" d="M700.933,304.887c-1.514-2.151-3.6-3.963-5.135-6.3-18.694-28.377-31.729-19.163-40.67-10.768s-5.25,26.831,8.271,41.167a55.19,55.19,0,0,0,5.993,5.5c-3.936,18.415,2.649,40.878,15.353,54.359l69.628-65.335C741.665,310.034,719.594,302.1,700.933,304.887Z" fill="#fc9735"/>
          <path id="Path_80" data-name="Path 80" d="M655.129,287.824c-8.951,8.4-15.934,15.255,8.271,41.167a53.953,53.953,0,0,0,5.993,5.5c-3.936,18.415,2.649,40.878,15.353,54.359l35.11-32.95Z" fill="#f36921"/>
          <g id="Group_10" data-name="Group 10">
            <path id="Path_81" data-name="Path 81" d="M617.935,405.235a13.54,13.54,0,1,1-13.544-13.511A13.525,13.525,0,0,1,617.935,405.235Z" fill="#292924"/>
            <path id="Path_82" data-name="Path 82" d="M613.734,405.235a9.338,9.338,0,1,1-9.343-9.313A9.324,9.324,0,0,1,613.734,405.235Z" fill="#171814"/>
          </g>
        </g>
        <g id="Group_20" data-name="Group 20">
          <g id="Group_18" data-name="Group 18">
            <path id="Path_83" data-name="Path 83" d="M1102.968,340.448c8.98,7.752,16.268,26.939,11.584,30.284-5.062,3.624-22.721.7-31.7-7.047s-11.78-19.232-6.225-25.648S1093.989,332.7,1102.968,340.448Z" fill="#818072"/>
            <path id="Path_84" data-name="Path 84" d="M1099.425,338.69c7.391,6.373,12.643,22.986,8.373,26.22-4.62,3.5-19.825,1.9-27.21-4.473s-9.159-16.4-3.964-22.4C1081.838,332.032,1092.047,332.323,1099.425,338.69Z" fill="#9b9a92"/>
            <path id="Path_85" data-name="Path 85" d="M1093.923,338c5.458,4.7,9.06,17.3,5.73,19.886-3.59,2.792-15.1,1.935-20.56-2.772s-6.562-12.342-2.468-17.075C1080.737,333.308,1088.465,333.283,1093.923,338Z" fill="#b6b4aa"/>
            <g id="Group_12" data-name="Group 12">
              <path id="Path_86" data-name="Path 86" d="M1085.621,336.68l.381-4.231,2.969,4.844Z" fill="#e1ddc0"/>
              <path id="Path_87" data-name="Path 87" d="M1098.335,344.113l.375-4.225,2.974,4.84Z" fill="#e1ddc0"/>
              <path id="Path_88" data-name="Path 88" d="M1107.414,351.589l2.228-3.543.592,5.543Z" fill="#e1ddc0"/>
              <path id="Path_89" data-name="Path 89" d="M1112.255,359.461l3.481-2.339-1.611,5.216Z" fill="#e1ddc0"/>
              <path id="Path_90" data-name="Path 90" d="M1080.151,340.335l.879-4.126,2.4,5.125Z" fill="#e1ddc0"/>
              <path id="Path_91" data-name="Path 91" d="M1091.372,344.1l.9-4.136,2.381,5.127Z" fill="#e1ddc0"/>
              <path id="Path_92" data-name="Path 92" d="M1103.2,357.764l.879-4.138,2.389,5.137Z" fill="#e1ddc0"/>
              <path id="Path_93" data-name="Path 93" d="M1107.548,366.076l.883-4.13,2.389,5.126Z" fill="#e1ddc0"/>
              <path id="Path_94" data-name="Path 94" d="M1074.183,343.709l-2.833-3.362,5.471,1.405Z" fill="#e1ddc0"/>
              <path id="Path_95" data-name="Path 95" d="M1080.2,360.322l-4.261-.95,4.993-2.274Z" fill="#e1ddc0"/>
              <path id="Path_96" data-name="Path 96" d="M1075.913,352.941l-4.241-.952,4.953-2.274Z" fill="#e1ddc0"/>
              <path id="Path_97" data-name="Path 97" d="M1091.424,368.561,1088,370.973l1.491-5.255Z" fill="#e1ddc0"/>
              <path id="Path_98" data-name="Path 98" d="M1099.879,371.343l-3.425,2.412,1.473-5.251Z" fill="#e1ddc0"/>
              <path id="Path_99" data-name="Path 99" d="M1093.972,351.916l-3.482-2.7,5.6.2Z" fill="#e1ddc0"/>
              <path id="Path_100" data-name="Path 100" d="M1083.559,351.388l-2.873-3.332,5.472,1.352Z" fill="#e1ddc0"/>
              <path id="Path_101" data-name="Path 101" d="M1096.914,362.466l-4.31-.432,4.619-2.889Z" fill="#e1ddc0"/>
            </g>
            <path id="Path_102" data-name="Path 102" d="M1110.859,317.1c.232,10.7-8.2,27.186-13.3,26.081-5.49-1.189-14.227-14.74-14.472-25.446-.242-10.681,5.763-19.506,13.424-19.678C1104.193,297.874,1110.611,306.41,1110.859,317.1Z" fill="#818072"/>
            <path id="Path_103" data-name="Path 103" d="M1109.892,313.671c.2,8.785-7.757,22.362-12.506,21.477-5.148-.968-13.3-12.086-13.5-20.872-.214-8.8,5.451-16.052,12.622-16.218S1109.673,304.879,1109.892,313.671Z" fill="#9b9a92"/>
            <path id="Path_104" data-name="Path 104" d="M1107.009,309.572c.163,6.49-6.112,16.533-9.857,15.876-4.045-.708-10.448-8.911-10.6-15.395s4.3-11.863,9.955-12S1106.875,303.083,1107.009,309.572Z" fill="#b6b4aa"/>
            <g id="Group_13" data-name="Group 13">
              <path id="Path_105" data-name="Path 105" d="M1102.874,303.237l3.059-2.314-1.447,4.922Z" fill="#e1ddc0"/>
              <path id="Path_106" data-name="Path 106" d="M1105.574,316.223l3.065-2.306-1.44,4.911Z" fill="#e1ddc0"/>
              <path id="Path_107" data-name="Path 107" d="M1106.075,326.824l3.72-.668-3.347,3.75Z" fill="#e1ddc0"/>
              <path id="Path_108" data-name="Path 108" d="M1103.729,334.82l3.685.905-4.474,2.087Z" fill="#e1ddc0"/>
              <path id="Path_109" data-name="Path 109" d="M1097.109,301.8l3.3-1.908-1.99,4.7Z" fill="#e1ddc0"/>
              <path id="Path_110" data-name="Path 110" d="M1101.385,311.572l3.319-1.912-2,4.7Z" fill="#e1ddc0"/>
              <path id="Path_111" data-name="Path 111" d="M1099.381,327.746l3.311-1.913-2.009,4.7Z" fill="#e1ddc0"/>
              <path id="Path_112" data-name="Path 112" d="M1096.44,335.685l3.306-1.917-1.984,4.707Z" fill="#e1ddc0"/>
              <path id="Path_113" data-name="Path 113" d="M1091.227,299.849l.535-3.923,2.371,4.5Z" fill="#e1ddc0"/>
              <path id="Path_114" data-name="Path 114" d="M1083.726,313.933l-1.937-3.406,4.55,1.942Z" fill="#e1ddc0"/>
              <path id="Path_115" data-name="Path 115" d="M1086.093,306.608l-1.947-3.416,4.538,1.947Z" fill="#e1ddc0"/>
              <path id="Path_116" data-name="Path 116" d="M1085.011,326.429l-3.693-.83,4.419-2.194Z" fill="#e1ddc0"/>
              <path id="Path_117" data-name="Path 117" d="M1088.268,333.746l-3.7-.82,4.412-2.191Z" fill="#e1ddc0"/>
              <path id="Path_118" data-name="Path 118" d="M1097.708,318.045l-.3-3.957,3.254,3.858Z" fill="#e1ddc0"/>
              <path id="Path_119" data-name="Path 119" d="M1091.762,310.769l.476-3.936,2.422,4.483Z" fill="#e1ddc0"/>
              <path id="Path_120" data-name="Path 120" d="M1092.425,326.39l-2.33-3.143,4.731,1.347Z" fill="#e1ddc0"/>
            </g>
            <path id="Path_121" data-name="Path 121" d="M1167.924,387.307c0,23.087-19.067,58.257-29.975,55.63-11.817-2.843-29.994-32.543-29.994-55.63s13.406-41.815,29.994-41.815C1154.492,345.492,1167.924,364.212,1167.924,387.307Z" fill="#818072"/>
            <path id="Path_122" data-name="Path 122" d="M1166.014,379.858c0,18.976-17.85,47.88-28.065,45.72-11.066-2.344-28.093-26.744-28.093-45.72s12.571-34.366,28.093-34.366C1153.446,345.492,1166.014,360.876,1166.014,379.858Z" fill="#9b9a92"/>
            <path id="Path_123" data-name="Path 123" d="M1160.033,370.868c0,14.026-14.05,35.377-22.084,33.769-8.714-1.722-22.1-19.743-22.1-33.769s9.893-25.376,22.1-25.376C1150.135,345.492,1160.033,356.854,1160.033,370.868Z" fill="#b6b4aa"/>
            <g id="Group_14" data-name="Group 14">
              <path id="Path_124" data-name="Path 124" d="M1151.4,356.979l6.723-4.83-3.37,10.532Z" fill="#e1ddc0"/>
              <path id="Path_125" data-name="Path 125" d="M1156.6,385.153l6.731-4.836-3.366,10.539Z" fill="#e1ddc0"/>
              <path id="Path_126" data-name="Path 126" d="M1157.123,408.05l8.056-1.241-7.415,7.919Z" fill="#e1ddc0"/>
              <path id="Path_127" data-name="Path 127" d="M1151.66,425.2l7.892,2.138-9.756,4.286Z" fill="#e1ddc0"/>
              <path id="Path_128" data-name="Path 128" d="M1139.03,353.6l7.223-3.955-4.53,10.046Z" fill="#e1ddc0"/>
              <path id="Path_129" data-name="Path 129" d="M1147.779,374.9l7.232-3.959-4.528,10.048Z" fill="#e1ddc0"/>
              <path id="Path_130" data-name="Path 130" d="M1142.651,409.7l7.212-3.953-4.527,10.044Z" fill="#e1ddc0"/>
              <path id="Path_131" data-name="Path 131" d="M1135.9,426.7l7.232-3.96-4.54,10.048Z" fill="#e1ddc0"/>
              <path id="Path_132" data-name="Path 132" d="M1126.436,349.09l1.355-8.45,4.894,9.855Z" fill="#e1ddc0"/>
              <path id="Path_133" data-name="Path 133" d="M1111.612,384.043l-8.37-1.324,9.393-5.054Z" fill="#e1ddc0"/>
              <path id="Path_134" data-name="Path 134" d="M1117.3,358.259l3.689-7.626,2.122,10.43Z" fill="#e1ddc0"/>
              <path id="Path_135" data-name="Path 135" d="M1111.687,406.137l-7.934-1.951,9.651-4.515Z" fill="#e1ddc0"/>
              <path id="Path_136" data-name="Path 136" d="M1118.337,422.114l-7.936-1.961,9.653-4.5Z" fill="#e1ddc0"/>
              <path id="Path_137" data-name="Path 137" d="M1139.527,388.676l-.462-8.548,6.831,8.483Z" fill="#e1ddc0"/>
              <path id="Path_138" data-name="Path 138" d="M1127.024,372.678l1.251-8.465,5.014,9.8Z" fill="#e1ddc0"/>
              <path id="Path_139" data-name="Path 139" d="M1127.677,406.434l-4.844-6.889,10.15,3.135Z" fill="#e1ddc0"/>
            </g>
            <path id="Path_140" data-name="Path 140" d="M1198.4,402.083c-11.556,2.729-31.418-2.607-31.381-8.364.016-6.223,12.734-18.793,24.286-21.518,11.57-2.731,22.509,1.744,24.475,9.992S1209.96,399.358,1198.4,402.083Z" fill="#818072"/>
            <path id="Path_141" data-name="Path 141" d="M1201.9,400.247c-9.5,2.242-26.078-3.236-26.2-8.58-.132-5.789,10.073-17.157,19.569-19.395s18.682,2.2,20.514,9.921S1211.388,398.006,1201.9,400.247Z" fill="#9b9a92"/>
            <path id="Path_142" data-name="Path 142" d="M1205.691,396.208c-7.028,1.659-19.349-2.818-19.521-7.013-.148-4.546,7.285-13.353,14.307-15,7-1.667,13.847,1.921,15.3,8C1217.21,388.28,1212.708,394.554,1205.691,396.208Z" fill="#b6b4aa"/>
            <g id="Group_15" data-name="Group 15">
              <path id="Path_143" data-name="Path 143" d="M1211.622,390.254l3.206,2.785-5.653-.428Z" fill="#e1ddc0"/>
              <path id="Path_144" data-name="Path 144" d="M1198.134,396.182l3.216,2.786-5.666-.435Z" fill="#e1ddc0"/>
              <path id="Path_145" data-name="Path 145" d="M1186.732,399.151l1.571,3.87-4.833-2.761Z" fill="#e1ddc0"/>
              <path id="Path_146" data-name="Path 146" d="M1177.518,398.46l-.146,4.175-3.288-4.341Z" fill="#e1ddc0"/>
              <path id="Path_147" data-name="Path 147" d="M1211.842,383.7l2.841,3.127-5.559-1.068Z" fill="#e1ddc0"/>
              <path id="Path_148" data-name="Path 148" d="M1202.217,390.578l2.831,3.129-5.553-1.068Z" fill="#e1ddc0"/>
              <path id="Path_149" data-name="Path 149" d="M1184.213,392.126l2.826,3.135-5.565-1.064Z" fill="#e1ddc0"/>
              <path id="Path_150" data-name="Path 150" d="M1174.906,390.779l2.83,3.129-5.569-1.068Z" fill="#e1ddc0"/>
              <path id="Path_151" data-name="Path 151" d="M1212.615,376.89l4.391-.325-4.36,3.61Z" fill="#e1ddc0"/>
              <path id="Path_152" data-name="Path 152" d="M1195.59,372.021l3.253-2.871-1.074,5.352Z" fill="#e1ddc0"/>
              <path id="Path_153" data-name="Path 153" d="M1204.105,372.89l3.26-2.883-1.092,5.356Z" fill="#e1ddc0"/>
              <path id="Path_154" data-name="Path 154" d="M1182.315,376.3l.054-4.19,3.4,4.27Z" fill="#e1ddc0"/>
              <path id="Path_155" data-name="Path 155" d="M1175.113,381.487l.043-4.183,3.408,4.284Z" fill="#e1ddc0"/>
              <path id="Path_156" data-name="Path 156" d="M1194.334,388.087l4.234-1.237-3.424,4.408Z" fill="#e1ddc0"/>
              <path id="Path_157" data-name="Path 157" d="M1200.878,379.976l4.383-.378-4.3,3.655Z" fill="#e1ddc0"/>
              <path id="Path_158" data-name="Path 158" d="M1184.06,384.286l2.879-3.226-.375,5.421Z" fill="#e1ddc0"/>
            </g>
            <path id="Path_159" data-name="Path 159" d="M1209.844,352.631c-2.135,9.5-13.231,22.221-17.475,20.131-4.6-2.249-9.344-16.137-7.205-25.64s9.395-15.969,16.187-14.45C1208.173,334.2,1211.974,343.135,1209.844,352.631Z" fill="#818072"/>
            <path id="Path_160" data-name="Path 160" d="M1209.739,349.394c-1.744,7.813-11.762,18.058-15.765,16.234-4.336-1.99-9.1-13.589-7.331-21.392s8.339-12.982,14.707-11.565C1207.744,334.1,1211.5,341.585,1209.739,349.394Z" fill="#9b9a92"/>
            <path id="Path_161" data-name="Path 161" d="M1208.11,345.151c-1.294,5.762-9.043,13.25-12.211,11.855-3.411-1.5-7.264-10.154-5.966-15.924s6.4-9.531,11.417-8.41S1209.4,339.376,1208.11,345.151Z" fill="#b6b4aa"/>
            <g id="Group_16" data-name="Group 16">
              <path id="Path_162" data-name="Path 162" d="M1205.847,338.637l3.2-1.366-2.354,4.03Z" fill="#e1ddc0"/>
              <path id="Path_163" data-name="Path 163" d="M1205.383,350.712l3.2-1.371-2.349,4.028Z" fill="#e1ddc0"/>
              <path id="Path_164" data-name="Path 164" d="M1203.475,360.176l3.445.227-3.794,2.587Z" fill="#e1ddc0"/>
              <path id="Path_165" data-name="Path 165" d="M1199.66,366.729l3.049,1.606-4.415.859Z" fill="#e1ddc0"/>
              <path id="Path_166" data-name="Path 166" d="M1201.057,336.111l3.349-.964-2.8,3.717Z" fill="#e1ddc0"/>
              <path id="Path_167" data-name="Path 167" d="M1202.689,345.681l3.343-.964-2.786,3.715Z" fill="#e1ddc0"/>
              <path id="Path_168" data-name="Path 168" d="M1197.364,359.532l3.351-.971-2.8,3.718Z" fill="#e1ddc0"/>
              <path id="Path_169" data-name="Path 169" d="M1193.016,365.9l3.363-.966-2.8,3.716Z" fill="#e1ddc0"/>
              <path id="Path_170" data-name="Path 170" d="M1196.3,333.1l1.325-3.354,1.127,4.507Z" fill="#e1ddc0"/>
              <path id="Path_171" data-name="Path 171" d="M1186.565,343.9l-.948-3.436,3.578,2.712Z" fill="#e1ddc0"/>
              <path id="Path_172" data-name="Path 172" d="M1190.268,337.943l-.956-3.443,3.581,2.715Z" fill="#e1ddc0"/>
              <path id="Path_173" data-name="Path 173" d="M1184.954,355.215l-3.077-1.539,4.393-.964Z" fill="#e1ddc0"/>
              <path id="Path_174" data-name="Path 174" d="M1186.232,362.395l-3.087-1.53,4.383-.969Z" fill="#e1ddc0"/>
              <path id="Path_175" data-name="Path 175" d="M1198.029,350.6l.6-3.567,2.031,4.124Z" fill="#e1ddc0"/>
              <path id="Path_176" data-name="Path 176" d="M1194.351,342.862l1.319-3.364,1.141,4.479Z" fill="#e1ddc0"/>
              <path id="Path_177" data-name="Path 177" d="M1191.524,356.8l-1.361-3.277,3.884,2.213Z" fill="#e1ddc0"/>
            </g>
            <path id="Path_178" data-name="Path 178" d="M1224.743,403.1c-6.4-1.374-15-8.725-13.621-11.589,1.493-3.084,10.808-6.333,17.2-4.952s10.8,6.193,9.806,10.769S1231.138,404.478,1224.743,403.1Z" fill="#818072"/>
            <path id="Path_179" data-name="Path 179" d="M1226.916,403.02c-5.247-1.137-12.2-7.781-10.984-10.466,1.3-2.918,9.075-6.16,14.342-5.017,5.266,1.12,8.77,5.512,7.852,9.791S1232.188,404.145,1226.916,403.02Z" fill="#9b9a92"/>
            <path id="Path_180" data-name="Path 180" d="M1229.775,401.9c-3.893-.831-8.969-5.979-8.044-8.1,1.005-2.3,6.788-4.922,10.677-4.085s6.444,4.239,5.718,7.614C1237.406,400.686,1233.66,402.744,1229.775,401.9Z" fill="#b6b4aa"/>
            <g id="Group_17" data-name="Group 17">
              <path id="Path_181" data-name="Path 181" d="M1234.132,400.353l.952,2.144-2.731-1.559Z" fill="#e1ddc0"/>
              <path id="Path_182" data-name="Path 182" d="M1226.016,400.1l.946,2.144-2.727-1.553Z" fill="#e1ddc0"/>
              <path id="Path_183" data-name="Path 183" d="M1219.644,398.885l-.141,2.3-1.756-2.525Z" fill="#e1ddc0"/>
              <path id="Path_184" data-name="Path 184" d="M1215.218,396.353l-1.054,2.059-.61-2.951Z" fill="#e1ddc0"/>
              <path id="Path_185" data-name="Path 185" d="M1235.8,397.138l.676,2.223-2.513-1.848Z" fill="#e1ddc0"/>
              <path id="Path_186" data-name="Path 186" d="M1229.386,398.286l.655,2.234-2.5-1.856Z" fill="#e1ddc0"/>
              <path id="Path_187" data-name="Path 187" d="M1220.05,394.793l.676,2.229-2.527-1.85Z" fill="#e1ddc0"/>
              <path id="Path_188" data-name="Path 188" d="M1215.736,391.918l.671,2.227-2.513-1.852Z" fill="#e1ddc0"/>
              <path id="Path_189" data-name="Path 189" d="M1237.8,393.937l2.277.865-3.014.776Z" fill="#e1ddc0"/>
              <path id="Path_190" data-name="Path 190" d="M1230.5,387.476l2.308-.662-1.8,2.417Z" fill="#e1ddc0"/>
              <path id="Path_191" data-name="Path 191" d="M1234.528,389.929l2.3-.666-1.807,2.412Z" fill="#e1ddc0"/>
              <path id="Path_192" data-name="Path 192" d="M1222.883,386.465l1.009-2.079.682,2.939Z" fill="#e1ddc0"/>
              <path id="Path_193" data-name="Path 193" d="M1218.058,387.35l1.02-2.077.671,2.93Z" fill="#e1ddc0"/>
              <path id="Path_194" data-name="Path 194" d="M1226.057,395.183l2.4.389-2.763,1.373Z" fill="#e1ddc0"/>
              <path id="Path_195" data-name="Path 195" d="M1231.242,392.7l2.279.846-3.024.8Z" fill="#e1ddc0"/>
              <path id="Path_196" data-name="Path 196" d="M1221.849,390.856l2.2-.928-1.485,2.619Z" fill="#e1ddc0"/>
            </g>
          </g>
          <g id="Group_19" data-name="Group 19">
            <rect id="Rectangle_2" data-name="Rectangle 2" width="71.838" height="10.735" transform="translate(1105.261 430.741)" fill="#282628"/>
            <path id="Path_197" data-name="Path 197" d="M1161.423,506.173a50.485,50.485,0,0,0,15.182-27.9c-3.6-.349-4.216-5.446-1.322-6.623a12.305,12.305,0,0,1-.262-5.871c-5.088.129-10.182.475-15.258.475-6.33-.012-12.642-.475-18.964-.642-11.047-.282-22.113-.1-33.166-.051.612,3.624.34,6.729-2.171,8.639a.045.045,0,0,1-.025,0c-.093.1.012.284.012.424s-.012.308-.012.449h.025c.338,9.1,5.933,22.346,14.42,30.545Zm12-30.181c.369,0,.406.579.031.579S1173.052,475.992,1173.418,475.992Zm-4.116-2.473c4.432,0,4.865,6.865.409,6.865C1165.269,480.384,1164.837,473.519,1169.3,473.519Zm-4.221,3.527c.36,0,.4.574.016.574S1164.706,477.046,1165.081,477.046Zm-4.417-3.351c4.463,0,4.867,6.889.409,6.889S1156.209,473.7,1160.664,473.7Zm-3.94,3.832c.377,0,.4.577.049.577C1156.393,478.1,1156.352,477.527,1156.724,477.527Zm-4.5-3.244c4.438,0,4.85,6.872.4,6.872C1148.188,481.155,1147.779,474.283,1152.226,474.283Zm-3.844,4.012c.377,0,.405.569.039.569S1148.012,478.295,1148.381,478.295Zm-4.4-3.444c4.436,0,4.849,6.891.39,6.891C1139.935,481.742,1139.527,474.851,1143.984,474.851Zm-3.944,3.537c.36,0,.387.576.029.576C1139.689,478.964,1139.675,478.388,1140.041,478.388Zm-4.706-3.537c4.442,0,4.865,6.891.4,6.891C1131.3,481.742,1130.888,474.851,1135.334,474.851Zm-4.031,3.339c.368,0,.4.577.036.577S1130.937,478.189,1131.3,478.189Zm-21.846,2.4c-4.448,0-4.853-6.889-.407-6.889S1113.917,480.585,1109.457,480.585Zm4.221-2.869c-.361,0-.4-.573-.019-.573C1114.015,477.143,1114.062,477.716,1113.678,477.716Zm4.8,3.24c-4.44,0-4.849-6.868-.393-6.868S1122.93,480.956,1118.473,480.956Zm4.24-2.568c-.38,0-.417-.577-.046-.577S1123.08,478.388,1122.714,478.388Zm4.186-3.915c4.44,0,4.857,6.867.4,6.867S1122.456,474.473,1126.9,474.473Z" fill="#2a292a"/>
            <path id="Path_198" data-name="Path 198" d="M1141.746,462.77c6.314.231,12.634.717,18.957.595,4.978-.093,9.914-.38,14.891-.493,1.4-5.844,4.05-12.418,3.226-17.471a.843.843,0,0,1-.312.051c-1.078,0-1.194-1.677-.114-1.716a7.94,7.94,0,0,0-3.373-4.1c-4.878-3.074-28-1.489-33.844-1.489-5.787,0-28.833-1.618-33.689,1.389-7.216,4.5-2.546,14.663-.447,23.14C1118.6,462.639,1130.184,462.364,1141.746,462.77Zm32.464-19.459c1.868,0,2.017,2.867.171,2.867S1172.358,443.311,1174.209,443.311Zm-3.849,1c1.1,0,1.212,1.726.112,1.726C1169.354,446.036,1169.261,444.31,1170.36,444.31Zm-5.347-.867c1.845,0,2.01,2.87.162,2.87S1163.153,443.443,1165.013,443.443Zm-4,.583c1.1,0,1.206,1.72.1,1.72S1159.891,444.026,1161.014,444.026Zm-5.073-.583c1.864,0,2.012,2.87.163,2.87S1154.085,443.443,1155.941,443.443Zm-4.864,1.016c1.119,0,1.209,1.72.109,1.72C1150.066,446.178,1149.971,444.459,1151.078,444.459Zm-4.057-.863c1.859,0,2.025,2.871.171,2.871S1145.158,443.6,1147.02,443.6Zm-4.428,1.147c1.108,0,1.209,1.724.094,1.724S1141.486,444.742,1142.592,444.742Zm-4.348-1.3c1.854,0,2.027,2.87.167,2.87S1136.382,443.443,1138.244,443.443Zm-4.153,1.016c1.119,0,1.223,1.72.118,1.72C1133.088,446.178,1133,444.459,1134.091,444.459Zm-4.049-.863c1.849,0,2.02,2.871.158,2.871C1128.357,446.466,1128.184,443.6,1130.042,443.6Zm-23.868,2.437c-1.851,0-2.019-2.871-.171-2.871S1108.025,446.032,1106.173,446.032Zm3.7-.286c-1.1,0-1.192-1.72-.09-1.72S1111,445.746,1109.876,445.746Zm3.358.721c-1.855,0-2.019-2.871-.165-2.871S1115.087,446.466,1113.234,446.466Zm4.278-.43c-1.118,0-1.213-1.726-.1-1.726S1118.626,446.036,1117.511,446.036Zm3.914.721c-1.854,0-2.012-2.885-.159-2.885S1123.286,446.757,1121.426,446.757Zm4.866-.578c-1.118,0-1.221-1.72-.1-1.72C1127.3,444.459,1127.41,446.178,1126.292,446.178Z" fill="#2a292a"/>
            <path id="Path_199" data-name="Path 199" d="M1106,443.161c-1.848,0-1.679,2.871.171,2.871S1107.86,443.161,1106,443.161Z" fill="#cdcabe"/>
            <path id="Path_200" data-name="Path 200" d="M1113.069,443.6c-1.854,0-1.69,2.871.165,2.871S1114.908,443.6,1113.069,443.6Z" fill="#cdcabe"/>
            <path id="Path_201" data-name="Path 201" d="M1121.267,443.872c-1.854,0-1.7,2.885.159,2.885S1123.109,443.872,1121.267,443.872Z" fill="#cdcabe"/>
            <path id="Path_202" data-name="Path 202" d="M1130.2,446.466c1.862,0,1.691-2.871-.158-2.871S1128.357,446.466,1130.2,446.466Z" fill="#cdcabe"/>
            <path id="Path_203" data-name="Path 203" d="M1138.411,446.312c1.86,0,1.687-2.87-.167-2.87S1136.553,446.312,1138.411,446.312Z" fill="#cdcabe"/>
            <path id="Path_204" data-name="Path 204" d="M1147.191,446.466c1.854,0,1.689-2.871-.171-2.871S1145.335,446.466,1147.191,446.466Z" fill="#cdcabe"/>
            <path id="Path_205" data-name="Path 205" d="M1156.1,446.312c1.85,0,1.7-2.87-.163-2.87S1154.26,446.312,1156.1,446.312Z" fill="#cdcabe"/>
            <path id="Path_206" data-name="Path 206" d="M1165.175,446.312c1.848,0,1.683-2.87-.162-2.87S1163.329,446.312,1165.175,446.312Z" fill="#cdcabe"/>
            <path id="Path_207" data-name="Path 207" d="M1174.38,446.178c1.846,0,1.7-2.867-.171-2.867C1172.358,443.311,1172.533,446.178,1174.38,446.178Z" fill="#cdcabe"/>
            <path id="Path_208" data-name="Path 208" d="M1140.8,465.609c6.322.167,12.634.629,18.964.642,5.075,0,10.17-.345,15.258-.475.148-.947.349-1.914.573-2.9-4.977.113-9.913.4-14.891.493-6.322.122-12.643-.364-18.957-.595-11.562-.406-23.149-.132-34.706-.089.242.987.446,1.947.592,2.877C1118.685,465.511,1129.75,465.327,1140.8,465.609Z" fill="#cdcabe"/>
            <path id="Path_209" data-name="Path 209" d="M1109.05,473.7c-4.446,0-4.041,6.889.407,6.889S1113.511,473.7,1109.05,473.7Z" fill="#cdcabe"/>
            <path id="Path_210" data-name="Path 210" d="M1118.081,474.088c-4.457,0-4.047,6.868.393,6.868C1122.93,480.956,1122.529,474.088,1118.081,474.088Z" fill="#cdcabe"/>
            <path id="Path_211" data-name="Path 211" d="M1126.9,474.473c-4.444,0-4.044,6.867.4,6.867S1131.34,474.473,1126.9,474.473Z" fill="#cdcabe"/>
            <path id="Path_212" data-name="Path 212" d="M1135.739,481.742c4.46,0,4.037-6.891-.4-6.891S1131.3,481.742,1135.739,481.742Z" fill="#cdcabe"/>
            <path id="Path_213" data-name="Path 213" d="M1144.374,481.742c4.459,0,4.046-6.891-.39-6.891C1139.527,474.851,1139.935,481.742,1144.374,481.742Z" fill="#cdcabe"/>
            <path id="Path_214" data-name="Path 214" d="M1152.622,481.155c4.454,0,4.042-6.872-.4-6.872S1148.188,481.155,1152.622,481.155Z" fill="#cdcabe"/>
            <path id="Path_215" data-name="Path 215" d="M1161.073,480.585c4.458,0,4.054-6.889-.409-6.889S1156.623,480.585,1161.073,480.585Z" fill="#cdcabe"/>
            <path id="Path_216" data-name="Path 216" d="M1169.71,480.384c4.457,0,4.023-6.865-.409-6.865C1164.837,473.519,1165.269,480.384,1169.71,480.384Z" fill="#cdcabe"/>
            <path id="Path_217" data-name="Path 217" d="M1176.6,478.27a27.823,27.823,0,0,0,.291-3.2h.028a3.689,3.689,0,0,0-.016-.43,4.132,4.132,0,0,0,.016-.443.06.06,0,0,1-.028,0,6.559,6.559,0,0,1-1.613-2.55C1172.388,472.825,1173,477.921,1176.6,478.27Z" fill="#cdcabe"/>
            <path id="Path_218" data-name="Path 218" d="M1109.787,444.026c-1.1,0-1.014,1.72.09,1.72C1111,445.746,1110.89,444.026,1109.787,444.026Z" fill="#cdcabe"/>
            <path id="Path_219" data-name="Path 219" d="M1117.407,444.31c-1.109,0-1.013,1.726.1,1.726S1118.518,444.31,1117.407,444.31Z" fill="#cdcabe"/>
            <path id="Path_220" data-name="Path 220" d="M1126.195,444.459c-1.125,0-1.021,1.72.1,1.72S1127.3,444.459,1126.195,444.459Z" fill="#cdcabe"/>
            <path id="Path_221" data-name="Path 221" d="M1134.208,446.178c1.105,0,1-1.72-.118-1.72C1133,444.459,1133.088,446.178,1134.208,446.178Z" fill="#cdcabe"/>
            <path id="Path_222" data-name="Path 222" d="M1142.686,446.466c1.115,0,1.013-1.724-.094-1.724S1141.579,446.466,1142.686,446.466Z" fill="#cdcabe"/>
            <path id="Path_223" data-name="Path 223" d="M1151.187,446.178c1.1,0,1.01-1.72-.109-1.72S1150.066,446.178,1151.187,446.178Z" fill="#cdcabe"/>
            <path id="Path_224" data-name="Path 224" d="M1161.115,445.746c1.1,0,1-1.72-.1-1.72C1159.891,444.026,1160,445.746,1161.115,445.746Z" fill="#cdcabe"/>
            <path id="Path_225" data-name="Path 225" d="M1170.472,446.036c1.1,0,.993-1.726-.112-1.726S1169.354,446.036,1170.472,446.036Z" fill="#cdcabe"/>
            <path id="Path_226" data-name="Path 226" d="M1178.507,445.451a.843.843,0,0,0,.312-.051,10.477,10.477,0,0,0-.426-1.665C1177.313,443.774,1177.429,445.451,1178.507,445.451Z" fill="#cdcabe"/>
            <path id="Path_227" data-name="Path 227" d="M1113.659,477.143c-.38,0-.342.573.019.573C1114.062,477.716,1114.015,477.143,1113.659,477.143Z" fill="#cdcabe"/>
            <path id="Path_228" data-name="Path 228" d="M1122.667,477.811c-.371,0-.334.577.046.577S1123.044,477.811,1122.667,477.811Z" fill="#cdcabe"/>
            <path id="Path_229" data-name="Path 229" d="M1131.34,478.766c.366,0,.332-.577-.036-.577S1130.969,478.766,1131.34,478.766Z" fill="#cdcabe"/>
            <path id="Path_230" data-name="Path 230" d="M1140.069,478.964c.358,0,.332-.576-.029-.576S1139.689,478.964,1140.069,478.964Z" fill="#cdcabe"/>
            <path id="Path_231" data-name="Path 231" d="M1148.42,478.863c.366,0,.338-.569-.039-.569S1148.046,478.863,1148.42,478.863Z" fill="#cdcabe"/>
            <path id="Path_232" data-name="Path 232" d="M1156.773,478.1c.35,0,.328-.577-.049-.577S1156.393,478.1,1156.773,478.1Z" fill="#cdcabe"/>
            <path id="Path_233" data-name="Path 233" d="M1165.1,477.62c.381,0,.344-.574-.016-.574S1164.731,477.62,1165.1,477.62Z" fill="#cdcabe"/>
            <path id="Path_234" data-name="Path 234" d="M1173.449,476.571c.374,0,.337-.579-.031-.579S1173.08,476.571,1173.449,476.571Z" fill="#cdcabe"/>
          </g>
        </g>
        <path id="Path_235" data-name="Path 235" d="M1010.464,505.391a6.585,6.585,0,0,1-6.543,6.623H987.834a6.583,6.583,0,0,1-6.536-6.623h0a6.581,6.581,0,0,1,6.536-6.627h16.087a6.583,6.583,0,0,1,6.543,6.627Z" fill="#0f0f0c"/>
        <g id="Group_22" data-name="Group 22">
          <path id="Path_236" data-name="Path 236" d="M1099.54,464.116c-4.4-6.315-10.526-2.624-14.908,1.614a29.661,29.661,0,0,0,.935-6.752c-.157-6.23-15.061-15.685-39.72-15.685-24.815,0-39.719,9.613-39.719,15.685,0,10.963,12.841,40.676,12.841,40.676,2.539,15.416,53.917,12.6,53.758,0,0,0,1.3-3.008,3.078-7.466C1085.209,496.6,1106.139,473.583,1099.54,464.116Zm-20.925,20.761c1.418-3.819,2.868-7.97,4.075-11.932,2.066-2.664,7.669-8.922,11.3-3.707C1098.253,475.343,1083.225,490.942,1078.615,484.877Z" fill="#f36921"/>
          <path id="Path_237" data-name="Path 237" d="M1080.972,458.07c0-5.221-16.071-11.486-35.9-11.486s-35.905,6.265-35.905,11.486,16.073,9.446,35.905,9.446S1080.972,463.287,1080.972,458.07Z" fill="#292924"/>
          <g id="Group_21" data-name="Group 21">
            <path id="Path_238" data-name="Path 238" d="M1047.472,500.324l-.265-.121c-.018-.007-.409-.187-1.063-.535l.631-1.173c.3.163.552.287.725.37.177-.075.426-.192.742-.344l.577,1.2c-.663.318-1.06.481-1.078.49Z" fill="#e8e4d2"/>
            <path id="Path_239" data-name="Path 239" d="M1050.867,498.664l-.647-1.162c.654-.362,1.3-.743,1.924-1.134l.709,1.129C1052.214,497.9,1051.544,498.291,1050.867,498.664Zm3.905-2.454-.783-1.08c.619-.441,1.209-.9,1.761-1.354l.852,1.023C1056.03,495.275,1055.411,495.751,1054.773,496.21Zm3.55-2.968-.937-.948a20.245,20.245,0,0,0,1.478-1.618l1.036.84A20.806,20.806,0,0,1,1058.323,493.242Zm2.946-3.64-1.14-.694a13.121,13.121,0,0,0,.972-1.915l1.239.494A14.4,14.4,0,0,1,1061.269,489.6Zm1.736-4.411-1.312-.238a9.437,9.437,0,0,0,.161-1.737c0-.121,0-.242-.009-.366l1.336-.053c0,.141.007.28.007.419A10.771,10.771,0,0,1,1063.005,485.19Zm-1.458-4.455a11.982,11.982,0,0,0-.647-2.04l1.23-.52a13.445,13.445,0,0,1,.718,2.262Zm-1.679-3.866a6.823,6.823,0,0,0-1.462-1.438l.778-1.083a8.1,8.1,0,0,1,1.752,1.722Zm-9.354-1.477-.634-1.168a10.961,10.961,0,0,1,2.232-.91l.362,1.285A9.617,9.617,0,0,0,1050.514,475.391Zm6.064-.847a6.891,6.891,0,0,0-1.9-.265,1.325,1.325,0,0,0-.139,0l-.027-1.332h.166a8.074,8.074,0,0,1,2.274.317Z" fill="#e8e4d2"/>
            <path id="Path_240" data-name="Path 240" d="M1047.465,477.848l-.479-.542a6.684,6.684,0,0,0-.756-.727l.859-1.019c.14.115.277.234.41.361.13-.118.263-.233.4-.348l.864,1.019a10.767,10.767,0,0,0-.793.736Z" fill="#e8e4d2"/>
            <path id="Path_241" data-name="Path 241" d="M1044,498.424c-.7-.439-1.395-.9-2.05-1.381l.784-1.076c.632.458,1.3.9,1.98,1.327Zm-4-2.9c-.65-.546-1.264-1.111-1.83-1.68l.946-.938c.539.538,1.125,1.078,1.745,1.6Zm-3.5-3.53a19.838,19.838,0,0,1-1.453-2.041l1.136-.7a18.174,18.174,0,0,0,1.356,1.905Zm-2.616-4.282a14.117,14.117,0,0,1-.78-2.414l1.3-.291a12.807,12.807,0,0,0,.707,2.188Zm-1.09-4.941v-.1c0-.087,0-.174,0-.265a13.944,13.944,0,0,1,.163-2.172l1.315.208a13.181,13.181,0,0,0-.142,1.964v.245c0,.031,0,.06,0,.088Zm2.082-4.489-1.224-.53a7.594,7.594,0,0,1,1.447-2.211l.966.913A6.424,6.424,0,0,0,1034.874,478.28Zm9.456-2.882a9.232,9.232,0,0,0-2.153-.666l.232-1.312a10.828,10.828,0,0,1,2.472.763Zm-6.51-.2-.559-1.208a7.91,7.91,0,0,1,2.548-.679l.13,1.327A6.723,6.723,0,0,0,1037.82,475.2Z" fill="#e8e4d2"/>
          </g>
        </g>
        <g id="Group_23" data-name="Group 23">
          <path id="Path_242" data-name="Path 242" d="M1205.012,510.952c0,3.058-.4,5.534-12.164,5.534H602.242c-11.753,0-12.164-2.477-12.164-5.534h0c0-3.052.411-5.53,12.164-5.53h590.607c11.76,0,12.164,2.478,12.164,5.53Z" fill="#171814"/>
          <path id="Path_243" data-name="Path 243" d="M1205.012,514.51c0,3.052-.4,5.534-12.164,5.534H602.242c-11.753,0-12.164-2.483-12.164-5.534h0c0-3.058.411-5.532,12.164-5.532h590.607c11.76,0,12.164,2.474,12.164,5.532Z" fill="#292924"/>
        </g>
        <g id="Group_24" data-name="Group 24">
          <path id="Path_244" data-name="Path 244" d="M761.749,358.847v-1.692h-8.386v2.354h4.959l-5.47,8.307V369.5h8.96v-2.345h-5.53Z" fill="#0f0f0c"/>
          <path id="Path_245" data-name="Path 245" d="M768.269,371.662l3.948-5.727V364.46H765.23v2.184h3.51l-3.932,5.7v1.5h7.542v-2.185Z" fill="#0f0f0c"/>
        </g>
        <g id="Group_28" data-name="Group 28">
          <path id="Path_246" data-name="Path 246" d="M769.184,424.122c-14.639,7.485-49.376,27.439-39.085,57.362,12.852,37.364,179.367,22.8,183.273-1.1C917.252,456.5,829.359,393.4,769.184,424.122Z" fill="#fa8f35"/>
          <g id="Group_26" data-name="Group 26">
            <path id="Path_247" data-name="Path 247" d="M728.24,471.56s-8.082,49.482,57.6,65.29S918,523.43,902.782,503.941c-15-19.2-35.816-14.549-72.094-7.955C788.031,503.735,746.819,497.058,728.24,471.56Z" fill="#fc9735"/>
            <path id="Path_248" data-name="Path 248" d="M902.782,503.941c-14.232-18.206-33.689-14.959-66.6-8.96-3.734,14.063-.671,32.032,7.5,45.327C884.406,535.773,913.375,517.5,902.782,503.941Z" fill="#e8e4d2"/>
            <g id="Group_25" data-name="Group 25">
              <path id="Path_249" data-name="Path 249" d="M794.869,498.981a140.2,140.2,0,0,1-14.763-1.108c-3.18,11.743-2.856,25.056-.221,37.393,1.912.564,3.9,1.085,5.952,1.584q5.854,1.408,11.689,2.342a84.912,84.912,0,0,1-3.516-14.4A70.308,70.308,0,0,1,794.869,498.981Z" fill="#f36921"/>
              <path id="Path_250" data-name="Path 250" d="M728.24,471.56a53.058,53.058,0,0,0,5.51,29.564,84.659,84.659,0,0,1,8.813-16.085A54.911,54.911,0,0,1,728.24,471.56Z" fill="#f36921"/>
              <path id="Path_251" data-name="Path 251" d="M753.319,490.8A63.281,63.281,0,0,0,742.9,512.211c-.141.527-.224,1.056-.342,1.583,5.633,6.126,13.368,11.949,24.043,16.672-1.67-11.7-1.44-23.8,1.341-34.835A90.109,90.109,0,0,1,753.319,490.8Z" fill="#f36921"/>
              <path id="Path_252" data-name="Path 252" d="M823.091,497.212c-5.169.739-10.289,1.242-15.331,1.534-3.677,14.306-1.142,28.273,3.955,42.118a173.193,173.193,0,0,0,18.689.406C823.565,527.715,820.741,511.541,823.091,497.212Z" fill="#f36921"/>
            </g>
          </g>
          <path id="Path_253" data-name="Path 253" d="M822.951,472.362c-3.042-9.1,9.054-10.238,17.391-10.263,21.01,15.56,42.9,34.466,37.853,42.466C861.135,531.506,824.937,478.232,822.951,472.362Z" fill="#f57528"/>
          <path id="Path_254" data-name="Path 254" d="M943.2,470.826c3.734-8.779-9.976-8.953-18.763-9.481-22.987,14.087-47.12,31.417-42.219,39.583C898.779,528.448,940.807,476.5,943.2,470.826Z" fill="#f57528"/>
          <path id="Path_255" data-name="Path 255" d="M825.261,306.057c-12.673,3.267-23.989,61.781-22.138,76.119s42.928-1.541,59.957-12.511S839.258,302.443,825.261,306.057Z" fill="#f36921"/>
          <path id="Path_256" data-name="Path 256" d="M831.331,320.8c-11.273-1.283-14.125,50.776-15.575,62.391-1.143,9.106,25.86,1.584,39.062-7.875C868.048,365.819,841.427,321.955,831.331,320.8Z" fill="#e8e4d2"/>
          <path id="Path_257" data-name="Path 257" d="M982.492,365.144c7.055,11-24.546,61.567-35.681,70.817S916.4,405.689,911.4,386.091,974.7,352.985,982.492,365.144Z" fill="#f36921"/>
          <path id="Path_258" data-name="Path 258" d="M967.985,371.827c9.138,6.706-24.268,46.8-31.124,56.3-5.367,7.457-20.034-16.391-23.257-32.29C910.376,379.9,959.8,365.819,967.985,371.827Z" fill="#e8e4d2"/>
          <path id="Path_259" data-name="Path 259" d="M943.453,428.358c-4.962-22.322-9.419-36.7-57.382-54.664-49.763-18.673-64.139-11.233-84.1,4.382-10.615,8.31-39.4,62.6-35.954,62.918,29.207,2.717,72.137,38.95,87.712,45.216s60.867-2.153,85.111,15.973C941.568,504.227,945.489,437.481,943.453,428.358Z" fill="#e8e4d2"/>
          <path id="Path_260" data-name="Path 260" d="M951.263,431.209c-7.029-22.407-10.642-56.808-58.62-74.734-49.815-18.6-73.655,8.594-94.984,19.664-8.162,4.233-23.019,6.039-31.635,18.545-2.135,3.087,10.849,2.789,8.48,5.584-7.981,9.327-12.951,14.266-11.2,14.45,20.385,1.992,79.042,20.205,99.456,55.524,36.516-19.269,83.567-2.24,95.466,12.2,1.145,1.437-.844-6.592-2.121-18.727-.344-3.374,9.066,5.537,8.644,2.267C963.973,459.555,954.061,440.089,951.263,431.209Z" fill="#fc9735"/>
          <path id="Path_261" data-name="Path 261" d="M834.028,449.854a1.606,1.606,0,0,0-1.122,3.007A1.606,1.606,0,0,0,834.028,449.854Z" fill="#ada686"/>
          <path id="Path_262" data-name="Path 262" d="M832.791,458.885A1.6,1.6,0,0,0,831.7,461.9,1.6,1.6,0,0,0,832.791,458.885Z" fill="#ada686"/>
          <path id="Path_263" data-name="Path 263" d="M816.916,449.932a1.6,1.6,0,0,0-1.128,3A1.6,1.6,0,0,0,816.916,449.932Z" fill="#ada686"/>
          <path id="Path_264" data-name="Path 264" d="M897,471.039a1.6,1.6,0,0,0-1.125,3A1.6,1.6,0,0,0,897,471.039Z" fill="#ada686"/>
          <path id="Path_265" data-name="Path 265" d="M898.15,481.256a1.6,1.6,0,0,0-1.11,3A1.6,1.6,0,0,0,898.15,481.256Z" fill="#ada686"/>
          <path id="Path_266" data-name="Path 266" d="M913.372,480.38a1.6,1.6,0,0,0-1.105,3A1.6,1.6,0,0,0,913.372,480.38Z" fill="#ada686"/>
          <path id="Path_267" data-name="Path 267" d="M867.615,476.826c-4.021-1.6-6.391-4.98-5.338-7.569,1.036-2.588,5.117-3.39,9.1-1.775,4.012,1.612,6.391,4.994,5.35,7.6C875.673,477.659,871.607,478.455,867.615,476.826Z" fill="#e8e4d2"/>
          <path id="Path_268" data-name="Path 268" d="M956.534,487.45c-8.4-5.788-17.893-8.209-27.731-10.238-.755-.137-.97,1.2-.223,1.352,9.654,1.976,18.949,4.331,27.183,10.006C956.377,489,957.172,487.876,956.534,487.45Z" fill="#ada686"/>
          <path id="Path_269" data-name="Path 269" d="M956.2,501.742c-6.9-9.012-16.784-13.563-26.4-18.327-.674-.35-1.174.922-.511,1.256,9.418,4.676,19.182,9.123,25.938,17.938C955.705,503.248,956.68,502.38,956.2,501.742Z" fill="#ada686"/>
          <path id="Path_270" data-name="Path 270" d="M947.153,503.758c-5.584-5.778-11.53-12.929-19.351-14.559-.744-.16-1.059,1.168-.331,1.328,7.637,1.6,13.391,8.6,18.844,14.244C946.849,505.345,947.684,504.328,947.153,503.758Z" fill="#ada686"/>
          <path id="Path_271" data-name="Path 271" d="M778.959,425.01c10.15,1.051,18.938,5.372,27.748,10.214.677.375-.054,1.526-.712,1.171-8.636-4.776-17.228-9.006-27.172-10.029C778.055,426.284,778.178,424.944,778.959,425.01Z" fill="#ada686"/>
          <path id="Path_272" data-name="Path 272" d="M769.9,436.1c11.1-2.365,21.6.585,31.99,3.173.741.177.321,1.472-.424,1.295-10.194-2.549-20.5-5.484-31.391-3.167C769.293,437.572,769.118,436.257,769.9,436.1Z" fill="#ada686"/>
          <path id="Path_273" data-name="Path 273" d="M778.229,446.933c7.806-1.958,16.64-4.88,24.139-2.147.721.26.284,1.552-.434,1.294-7.3-2.657-15.939.246-23.515,2.156C777.641,448.44,777.467,447.134,778.229,446.933Z" fill="#ada686"/>
          <path id="Path_274" data-name="Path 274" d="M856.525,472.728c-3.986-1.6-6.374-5.01-5.344-7.588,1.065-2.577,5.14-3.391,9.135-1.767,3.992,1.6,6.376,5,5.338,7.585S860.517,474.343,856.525,472.728Z" fill="#e8e4d2"/>
          <path id="Path_275" data-name="Path 275" d="M867.807,482.024a9.081,9.081,0,0,1-16.858-6.758c1.888-4.648,11.807-5.023,11.807-5.023S869.66,477.4,867.807,482.024Z" fill="#e8e4d2"/>
          <path id="Path_276" data-name="Path 276" d="M862.647,474.773l2.594-7.646c3.295-.245,9.78-3.49,9.368-6.248-.551-3.573-11.649-7.1-14.582-4.934-2.245,1.7,1.162,8.465,3.636,10.667l-2.6,7.632a9.3,9.3,0,0,1-10.383-2.769c-.608-.724-1.524.146-.9.865,4.615,5.3,11.638,3.442,11.638,3.442s5.742,6.561,12.306,3.924a.82.82,0,0,0-1.042-1.083A9.484,9.484,0,0,1,862.647,474.773Z" fill="#232122"/>
          <g id="Group_27" data-name="Group 27">
            <path id="Path_277" data-name="Path 277" d="M852.461,432.212A11.07,11.07,0,1,1,845.944,418,11.077,11.077,0,0,1,852.461,432.212Z" fill="#f57528"/>
            <path id="Path_278" data-name="Path 278" d="M915.162,453.594a11.066,11.066,0,1,1-6.512-14.2A11.049,11.049,0,0,1,915.162,453.594Z" fill="#f57528"/>
            <path id="Path_279" data-name="Path 279" d="M839.1,436.148a11.011,11.011,0,0,1-6.98-12.49c-.126.274-.3.538-.408.836a11.07,11.07,0,0,0,20.752,7.717,16.863,16.863,0,0,0,.451-1.687A11.012,11.012,0,0,1,839.1,436.148Z" fill="#232122"/>
            <path id="Path_280" data-name="Path 280" d="M901.786,457.551a10.968,10.968,0,0,1-6.939-12.523c-.152.3-.315.576-.436.874a11.066,11.066,0,0,0,20.752,7.691,9.135,9.135,0,0,0,.451-1.678A11.046,11.046,0,0,1,901.786,457.551Z" fill="#232122"/>
          </g>
        </g>
      </g>
    </g>
  </g>
</svg>
