<svg xmlns="http://www.w3.org/2000/svg" xmlns:xlink="http://www.w3.org/1999/xlink" width="42.923" height="46" viewBox="0 0 42.923 46">
  <defs>
    <linearGradient id="linear-gradient" x1="0.93" y1="-0.206" x2="0.402" y2="1" gradientUnits="objectBoundingBox">
      <stop offset="0" stop-color="#0158ff"/>
      <stop offset="1" stop-color="#46d9fe"/>
    </linearGradient>
  </defs>
  <g id="Logo_blue" data-name="Logo blue" transform="translate(-1917.932 -778)">
    <path id="Path_13369" data-name="Path 13369" d="M1938.936,886.757c-1.277-.255-2.571-.45-3.83-.775a23.044,23.044,0,0,1-14.481-33.088q.144-.273.3-.538c.024-.041.076-.065.17-.143l1.91,1.419a20.492,20.492,0,0,0-1.8,16.032,20.232,20.232,0,0,0,7.52,10.726,20.736,20.736,0,0,0,27.083-2.237l1.927,1.447c-.793.714-1.5,1.414-2.275,2.035a22.742,22.742,0,0,1-12,4.985,3.385,3.385,0,0,0-.511.137Z" transform="translate(0 -62.757)" fill="url(#linear-gradient)"/>
    <path id="Path_13370" data-name="Path 13370" d="M2040.01,778c.337.3.654.624,1.013.894q5.846,4.407,11.7,8.8c.2.151.393.313.644.513l-1.447,1.773-15.379-11.51,2.232-.469Z" transform="translate(-100.302 0)" fill="url(#linear-gradient)"/>
    <path id="Path_13371" data-name="Path 13371" d="M2132.236,966.168l-1.3,1.76L2120.6,960.4l1.363-2.048c.229.154.436.282.63.428q4.5,3.367,9,6.734a4.887,4.887,0,0,0,.647.349Z" transform="translate(-171.381 -152.511)" fill="url(#linear-gradient)"/>
    <path id="Path_13372" data-name="Path 13372" d="M1951.938,871.349a11.921,11.921,0,0,1,1.449,1.1.961.961,0,0,1,.014.836,15.615,15.615,0,0,0-.193,12.94,15.919,15.919,0,0,0,24.948,5.937c.236-.2.469-.4.767-.652l1.7,1.267a18.089,18.089,0,0,1-28.683-21.429Z" transform="translate(-26.899 -78.939)" fill="url(#linear-gradient)"/>
    <path id="Path_13373" data-name="Path 13373" d="M1980.942,889.93a.489.489,0,0,1,.116.032c.515.382,1.26.668,1.474,1.176.184.441-.24,1.132-.387,1.715a11.269,11.269,0,0,0,17.657,11.817c.144-.107.29-.212.484-.353l1.9,1.407a13.493,13.493,0,0,1-21.24-15.8Z" transform="translate(-52.156 -94.652)" fill="url(#linear-gradient)"/>
    <path id="Path_13374" data-name="Path 13374" d="M1998.727,788.5c.845-.361,1.512-.678,2.2-.923a.858.858,0,0,1,.684.13q8.244,6.148,16.468,12.326c.038.028.055.082.111.17l-1.458,1.748Z" transform="translate(-68.323 -8.072)" fill="url(#linear-gradient)"/>
    <path id="Path_13375" data-name="Path 13375" d="M1970.01,805.809c.622-.465,1.118-.867,1.651-1.214a.656.656,0,0,1,.6-.009c3.466,2.565,6.918,5.15,10.448,7.788-.875.308-1.651.6-2.439.843a.655.655,0,0,1-.479-.147C1976.57,810.688,1973.357,808.3,1970.01,805.809Z" transform="translate(-44.039 -22.425)" fill="url(#linear-gradient)"/>
    <path id="Path_13376" data-name="Path 13376" d="M1958.819,832.328l-1.6,1.691-9.5-7.063,1.488-1.811Z" transform="translate(-25.191 -39.868)" fill="url(#linear-gradient)"/>
    <path id="Path_13377" data-name="Path 13377" d="M2099.93,784.656l-1.632,2.161-10.36-7.8A22.267,22.267,0,0,1,2099.93,784.656Z" transform="translate(-143.764 -0.864)" fill="url(#linear-gradient)"/>
  </g>
</svg>
