<svg xmlns="http://www.w3.org/2000/svg" width="155" height="50" viewBox="0 0 155 50">
  <g id="Vector_Smart_Object4" data-name="Vector Smart Object4" transform="translate(-262.077 -104.048)">
    <g id="Group_32" data-name="Group 32">
      <path id="Path_564" data-name="Path 564" d="M315.628,142.623a20.548,20.548,0,0,1,20.4-20.693,20.059,20.059,0,0,1,8.888,2.064A32.225,32.225,0,0,1,402.7,133.36a33.264,33.264,0,0,1,1.305,9.263Z" fill="#eaf0f4"/>
      <path id="Path_565" data-name="Path 565" d="M387.307,145.066H290.531V143.8a25.347,25.347,0,0,1,25.136-25.5,24.572,24.572,0,0,1,9.986,2.093,39.037,39.037,0,0,1,31.677-16.345,39.452,39.452,0,0,1,37.083,26.881,14.641,14.641,0,0,1,7.78-2.231,15.01,15.01,0,0,1,14.884,15.1v1.269Zm9.185-2.537h18.02a12.47,12.47,0,0,0-12.32-11.293,12.193,12.193,0,0,0-7.021,2.219A40.268,40.268,0,0,1,396.492,142.529Zm-6.621,0h4.118a37.728,37.728,0,0,0-.933-7.2A12.607,12.607,0,0,0,389.871,142.529Zm-96.8,0h94.293a15.152,15.152,0,0,1,4.938-10,36.94,36.94,0,0,0-34.968-25.941A36.565,36.565,0,0,0,327.1,122.7l-.61.9-.967-.476a22.117,22.117,0,0,0-9.86-2.289A22.806,22.806,0,0,0,293.067,142.528Z" fill="#d0d9e2"/>
      <rect id="Rectangle_3" data-name="Rectangle 3" width="115.084" height="2.537" transform="translate(262.077 151.511)" fill="#d0d9e2"/>
    </g>
  </g>
</svg>
