<svg xmlns="http://www.w3.org/2000/svg" width="317" height="70" viewBox="0 0 317 70">
  <g id="Vector_Smart_Object3" data-name="Vector Smart Object3" transform="translate(-828.803 -198.071)">
    <path id="Path_572" data-name="Path 572" d="M872.47,254.847a18.824,18.824,0,1,1,37.647,0Z" fill="#eaf0f4"/>
    <path id="Path_573" data-name="Path 573" d="M1050.235,254.847a19.741,19.741,0,1,1,39.48,0Z" fill="#eaf0f4"/>
    <path id="Path_574" data-name="Path 574" d="M910.117,254.847A34.689,34.689,0,0,1,944.7,220.053a34.233,34.233,0,0,1,15.067,3.47,54.8,54.8,0,0,1,97.963,15.75,55.528,55.528,0,0,1,2.211,15.575Z" fill="#eaf0f4"/>
    <g id="Group_34" data-name="Group 34">
      <rect id="Rectangle_6" data-name="Rectangle 6" width="266.291" height="3.027" transform="translate(828.803 253.334)" fill="#d0d9e2"/>
      <path id="Path_575" data-name="Path 575" d="M892.3,254.847h-3.009a17.32,17.32,0,1,0-34.639,0H851.64a20.328,20.328,0,1,1,40.656,0Z" fill="#d0d9e2"/>
      <path id="Path_576" data-name="Path 576" d="M1071.893,254.847h-3.009a18.236,18.236,0,1,0-36.471,0H1029.4a21.244,21.244,0,1,1,42.488,0Z" fill="#d0d9e2"/>
      <path id="Path_577" data-name="Path 577" d="M1042.118,254.847h-3.009A53.64,53.64,0,0,0,985.695,201.1a53.373,53.373,0,0,0-44.017,23.283l-.733,1.07-1.163-.568a32.549,32.549,0,0,0-14.41-3.318A33.217,33.217,0,0,0,892.3,254.847h-3.009a36.238,36.238,0,0,1,36.085-36.308,35.513,35.513,0,0,1,14.562,3.079,56.3,56.3,0,0,1,99.911,17.228A57.087,57.087,0,0,1,1042.118,254.847Z" fill="#d0d9e2"/>
    </g>
    <rect id="Rectangle_7" data-name="Rectangle 7" width="205.363" height="3.027" transform="translate(940.439 265.044)" fill="#d0d9e2"/>
  </g>
</svg>
